<mxfile host="app.diagrams.net" agent="Mozilla/5.0 (Windows NT 10.0; Win64; x64) AppleWebKit/537.36 (KHTML, like Gecko) Chrome/132.0.0.0 Safari/537.36" version="26.0.10">
  <diagram id="vZv2f6N4h2fVlUgS8-mH" name="Page-1">
    <mxGraphModel dx="2643" dy="1736" grid="1" gridSize="10" guides="1" tooltips="1" connect="1" arrows="1" fold="1" page="1" pageScale="1" pageWidth="827" pageHeight="1169" math="0" shadow="0">
      <root>
        <mxCell id="0" />
        <mxCell id="1" parent="0" />
        <mxCell id="reWRQmKxyJkvaZW5Zuav-1" value="IntLiteral" style="swimlane;fontStyle=1;align=center;verticalAlign=top;childLayout=stackLayout;horizontal=1;startSize=26;horizontalStack=0;resizeParent=1;resizeParentMax=0;resizeLast=0;collapsible=1;marginBottom=0;" parent="1" vertex="1">
          <mxGeometry x="140" y="170" width="167" height="60" as="geometry" />
        </mxCell>
        <mxCell id="reWRQmKxyJkvaZW5Zuav-2" value="+ value: int" style="text;strokeColor=none;fillColor=none;align=left;verticalAlign=top;spacingLeft=4;spacingRight=4;overflow=hidden;rotatable=0;points=[[0,0.5],[1,0.5]];portConstraint=eastwest;" parent="reWRQmKxyJkvaZW5Zuav-1" vertex="1">
          <mxGeometry y="26" width="167" height="26" as="geometry" />
        </mxCell>
        <mxCell id="reWRQmKxyJkvaZW5Zuav-3" value="" style="line;strokeWidth=1;fillColor=none;align=left;verticalAlign=middle;spacingTop=-1;spacingLeft=3;spacingRight=3;rotatable=0;labelPosition=right;points=[];portConstraint=eastwest;" parent="reWRQmKxyJkvaZW5Zuav-1" vertex="1">
          <mxGeometry y="52" width="167" height="8" as="geometry" />
        </mxCell>
        <mxCell id="reWRQmKxyJkvaZW5Zuav-5" value="Variable" style="swimlane;fontStyle=1;align=center;verticalAlign=top;childLayout=stackLayout;horizontal=1;startSize=26;horizontalStack=0;resizeParent=1;resizeParentMax=0;resizeLast=0;collapsible=1;marginBottom=0;" parent="1" vertex="1">
          <mxGeometry x="320" y="170" width="167" height="60" as="geometry" />
        </mxCell>
        <mxCell id="reWRQmKxyJkvaZW5Zuav-6" value="+ name: String" style="text;strokeColor=none;fillColor=none;align=left;verticalAlign=top;spacingLeft=4;spacingRight=4;overflow=hidden;rotatable=0;points=[[0,0.5],[1,0.5]];portConstraint=eastwest;" parent="reWRQmKxyJkvaZW5Zuav-5" vertex="1">
          <mxGeometry y="26" width="167" height="26" as="geometry" />
        </mxCell>
        <mxCell id="reWRQmKxyJkvaZW5Zuav-7" value="" style="line;strokeWidth=1;fillColor=none;align=left;verticalAlign=middle;spacingTop=-1;spacingLeft=3;spacingRight=3;rotatable=0;labelPosition=right;points=[];portConstraint=eastwest;" parent="reWRQmKxyJkvaZW5Zuav-5" vertex="1">
          <mxGeometry y="52" width="167" height="8" as="geometry" />
        </mxCell>
        <mxCell id="reWRQmKxyJkvaZW5Zuav-10" value="ArithmeticExpression" style="swimlane;fontStyle=1;align=center;verticalAlign=top;childLayout=stackLayout;horizontal=1;startSize=26;horizontalStack=0;resizeParent=1;resizeParentMax=0;resizeLast=0;collapsible=1;marginBottom=0;" parent="1" vertex="1">
          <mxGeometry x="860" y="170" width="167" height="60" as="geometry" />
        </mxCell>
        <mxCell id="reWRQmKxyJkvaZW5Zuav-11" value="+ operator: String" style="text;strokeColor=none;fillColor=none;align=left;verticalAlign=top;spacingLeft=4;spacingRight=4;overflow=hidden;rotatable=0;points=[[0,0.5],[1,0.5]];portConstraint=eastwest;" parent="reWRQmKxyJkvaZW5Zuav-10" vertex="1">
          <mxGeometry y="26" width="167" height="26" as="geometry" />
        </mxCell>
        <mxCell id="reWRQmKxyJkvaZW5Zuav-12" value="" style="line;strokeWidth=1;fillColor=none;align=left;verticalAlign=middle;spacingTop=-1;spacingLeft=3;spacingRight=3;rotatable=0;labelPosition=right;points=[];portConstraint=eastwest;" parent="reWRQmKxyJkvaZW5Zuav-10" vertex="1">
          <mxGeometry y="52" width="167" height="8" as="geometry" />
        </mxCell>
        <mxCell id="reWRQmKxyJkvaZW5Zuav-19" value="&lt;p style=&quot;margin:0px;margin-top:4px;text-align:center;&quot;&gt;&lt;i&gt;&amp;lt;&amp;lt;Interface&amp;gt;&amp;gt;&lt;/i&gt;&lt;br&gt;&lt;b&gt;Expression&lt;/b&gt;&lt;/p&gt;&lt;hr size=&quot;1&quot; style=&quot;border-style:solid;&quot;&gt;&lt;p style=&quot;margin:0px;margin-left:4px;&quot;&gt;&lt;br&gt;&lt;/p&gt;" style="verticalAlign=top;align=left;overflow=fill;html=1;whiteSpace=wrap;" parent="1" vertex="1">
          <mxGeometry x="220" y="60" width="190" height="40" as="geometry" />
        </mxCell>
        <mxCell id="reWRQmKxyJkvaZW5Zuav-21" value="" style="endArrow=block;dashed=1;endFill=0;endSize=12;html=1;entryX=0.5;entryY=1;entryDx=0;entryDy=0;exitX=0.5;exitY=0;exitDx=0;exitDy=0;" parent="1" source="reWRQmKxyJkvaZW5Zuav-1" target="reWRQmKxyJkvaZW5Zuav-19" edge="1">
          <mxGeometry width="160" relative="1" as="geometry">
            <mxPoint x="230" y="160" as="sourcePoint" />
            <mxPoint x="390" y="160" as="targetPoint" />
          </mxGeometry>
        </mxCell>
        <mxCell id="reWRQmKxyJkvaZW5Zuav-22" value="" style="endArrow=block;dashed=1;endFill=0;endSize=12;html=1;entryX=0.5;entryY=1;entryDx=0;entryDy=0;exitX=0.5;exitY=0;exitDx=0;exitDy=0;" parent="1" source="reWRQmKxyJkvaZW5Zuav-5" target="reWRQmKxyJkvaZW5Zuav-19" edge="1">
          <mxGeometry width="160" relative="1" as="geometry">
            <mxPoint x="274" y="290" as="sourcePoint" />
            <mxPoint x="385" y="110" as="targetPoint" />
          </mxGeometry>
        </mxCell>
        <mxCell id="reWRQmKxyJkvaZW5Zuav-23" value="" style="endArrow=block;dashed=1;endFill=0;endSize=12;html=1;entryX=0.5;entryY=1;entryDx=0;entryDy=0;exitX=0.5;exitY=0;exitDx=0;exitDy=0;" parent="1" source="reWRQmKxyJkvaZW5Zuav-10" target="reWRQmKxyJkvaZW5Zuav-19" edge="1">
          <mxGeometry width="160" relative="1" as="geometry">
            <mxPoint x="471" y="290" as="sourcePoint" />
            <mxPoint x="385" y="110" as="targetPoint" />
          </mxGeometry>
        </mxCell>
        <mxCell id="reWRQmKxyJkvaZW5Zuav-24" value="2" style="endArrow=open;html=1;endSize=12;startArrow=diamondThin;startSize=14;startFill=0;edgeStyle=orthogonalEdgeStyle;align=left;verticalAlign=bottom;exitX=0.5;exitY=1;exitDx=0;exitDy=0;entryX=1;entryY=0.5;entryDx=0;entryDy=0;" parent="1" source="reWRQmKxyJkvaZW5Zuav-10" target="reWRQmKxyJkvaZW5Zuav-19" edge="1">
          <mxGeometry x="0.9662" y="20" relative="1" as="geometry">
            <mxPoint x="570" y="260" as="sourcePoint" />
            <mxPoint x="730" y="260" as="targetPoint" />
            <mxPoint as="offset" />
            <Array as="points">
              <mxPoint x="943" y="270" />
              <mxPoint x="1450" y="270" />
              <mxPoint x="1450" y="80" />
            </Array>
          </mxGeometry>
        </mxCell>
        <mxCell id="reWRQmKxyJkvaZW5Zuav-29" value="UnaryMinus" style="swimlane;fontStyle=1;align=center;verticalAlign=top;childLayout=stackLayout;horizontal=1;startSize=26;horizontalStack=0;resizeParent=1;resizeParentMax=0;resizeLast=0;collapsible=1;marginBottom=0;" parent="1" vertex="1">
          <mxGeometry x="-580" y="170" width="167" height="34" as="geometry" />
        </mxCell>
        <mxCell id="reWRQmKxyJkvaZW5Zuav-31" value="" style="line;strokeWidth=1;fillColor=none;align=left;verticalAlign=middle;spacingTop=-1;spacingLeft=3;spacingRight=3;rotatable=0;labelPosition=right;points=[];portConstraint=eastwest;" parent="reWRQmKxyJkvaZW5Zuav-29" vertex="1">
          <mxGeometry y="26" width="167" height="8" as="geometry" />
        </mxCell>
        <mxCell id="reWRQmKxyJkvaZW5Zuav-32" value="" style="endArrow=block;dashed=1;endFill=0;endSize=12;html=1;entryX=0.5;entryY=1;entryDx=0;entryDy=0;exitX=0.5;exitY=0;exitDx=0;exitDy=0;" parent="1" source="reWRQmKxyJkvaZW5Zuav-29" target="reWRQmKxyJkvaZW5Zuav-19" edge="1">
          <mxGeometry width="160" relative="1" as="geometry">
            <mxPoint x="234" y="180" as="sourcePoint" />
            <mxPoint x="414" y="110" as="targetPoint" />
          </mxGeometry>
        </mxCell>
        <mxCell id="reWRQmKxyJkvaZW5Zuav-33" value="1" style="endArrow=open;html=1;endSize=12;startArrow=diamondThin;startSize=14;startFill=0;edgeStyle=orthogonalEdgeStyle;align=left;verticalAlign=bottom;exitX=0.5;exitY=1;exitDx=0;exitDy=0;entryX=0;entryY=0.75;entryDx=0;entryDy=0;" parent="1" source="reWRQmKxyJkvaZW5Zuav-29" target="reWRQmKxyJkvaZW5Zuav-19" edge="1">
          <mxGeometry x="0.9676" relative="1" as="geometry">
            <mxPoint x="41" y="230" as="sourcePoint" />
            <mxPoint x="200" y="80" as="targetPoint" />
            <mxPoint as="offset" />
            <Array as="points">
              <mxPoint x="-497" y="300" />
              <mxPoint x="-1200" y="300" />
              <mxPoint x="-1200" y="90" />
            </Array>
          </mxGeometry>
        </mxCell>
        <mxCell id="reWRQmKxyJkvaZW5Zuav-34" value="&lt;p style=&quot;margin:0px;margin-top:4px;text-align:center;&quot;&gt;&lt;i&gt;&amp;lt;&amp;lt;Interface&amp;gt;&amp;gt;&lt;/i&gt;&lt;br&gt;&lt;b&gt;ASTNode&lt;/b&gt;&lt;/p&gt;&lt;hr size=&quot;1&quot; style=&quot;border-style:solid;&quot;&gt;&lt;p style=&quot;margin:0px;margin-left:4px;&quot;&gt;&lt;br&gt;&lt;/p&gt;" style="verticalAlign=top;align=left;overflow=fill;html=1;whiteSpace=wrap;" parent="1" vertex="1">
          <mxGeometry x="-63" y="-60" width="190" height="40" as="geometry" />
        </mxCell>
        <mxCell id="reWRQmKxyJkvaZW5Zuav-36" value="" style="endArrow=block;endSize=16;endFill=0;html=1;entryX=1;entryY=0.5;entryDx=0;entryDy=0;exitX=0;exitY=0.5;exitDx=0;exitDy=0;" parent="1" source="reWRQmKxyJkvaZW5Zuav-40" target="reWRQmKxyJkvaZW5Zuav-34" edge="1">
          <mxGeometry width="160" relative="1" as="geometry">
            <mxPoint x="460" y="-40.339999999999975" as="sourcePoint" />
            <mxPoint x="620" y="-40.339999999999975" as="targetPoint" />
          </mxGeometry>
        </mxCell>
        <mxCell id="reWRQmKxyJkvaZW5Zuav-40" value="&lt;p style=&quot;margin:0px;margin-top:4px;text-align:center;&quot;&gt;&lt;i&gt;&amp;lt;&amp;lt;Interface&amp;gt;&amp;gt;&lt;/i&gt;&lt;br&gt;&lt;b&gt;Locatable&lt;/b&gt;&lt;/p&gt;&lt;div&gt;&lt;hr size=&quot;1&quot; style=&quot;border-style:solid;&quot;&gt;&lt;p style=&quot;margin:0px;margin-left:4px;&quot;&gt;+ getLine(): int&lt;/p&gt;&lt;p style=&quot;margin:0px;margin-left:4px;&quot;&gt;+ getCol(): int&lt;/p&gt;&lt;/div&gt;" style="verticalAlign=top;align=left;overflow=fill;html=1;whiteSpace=wrap;" parent="1" vertex="1">
          <mxGeometry x="220" y="-80" width="190" height="80" as="geometry" />
        </mxCell>
        <mxCell id="-1NXa6blrXkoFp0iWsaB-1" value="RealLiteral" style="swimlane;fontStyle=1;align=center;verticalAlign=top;childLayout=stackLayout;horizontal=1;startSize=26;horizontalStack=0;resizeParent=1;resizeParentMax=0;resizeLast=0;collapsible=1;marginBottom=0;" parent="1" vertex="1">
          <mxGeometry x="-40" y="170" width="167" height="60" as="geometry" />
        </mxCell>
        <mxCell id="-1NXa6blrXkoFp0iWsaB-2" value="+ value: double" style="text;strokeColor=none;fillColor=none;align=left;verticalAlign=top;spacingLeft=4;spacingRight=4;overflow=hidden;rotatable=0;points=[[0,0.5],[1,0.5]];portConstraint=eastwest;" parent="-1NXa6blrXkoFp0iWsaB-1" vertex="1">
          <mxGeometry y="26" width="167" height="26" as="geometry" />
        </mxCell>
        <mxCell id="-1NXa6blrXkoFp0iWsaB-3" value="" style="line;strokeWidth=1;fillColor=none;align=left;verticalAlign=middle;spacingTop=-1;spacingLeft=3;spacingRight=3;rotatable=0;labelPosition=right;points=[];portConstraint=eastwest;" parent="-1NXa6blrXkoFp0iWsaB-1" vertex="1">
          <mxGeometry y="52" width="167" height="8" as="geometry" />
        </mxCell>
        <mxCell id="-1NXa6blrXkoFp0iWsaB-4" value="FuncInvocation" style="swimlane;fontStyle=1;align=center;verticalAlign=top;childLayout=stackLayout;horizontal=1;startSize=26;horizontalStack=0;resizeParent=1;resizeParentMax=0;resizeLast=0;collapsible=1;marginBottom=0;" parent="1" vertex="1">
          <mxGeometry x="-400" y="170" width="167" height="34" as="geometry" />
        </mxCell>
        <mxCell id="-1NXa6blrXkoFp0iWsaB-6" value="" style="line;strokeWidth=1;fillColor=none;align=left;verticalAlign=middle;spacingTop=-1;spacingLeft=3;spacingRight=3;rotatable=0;labelPosition=right;points=[];portConstraint=eastwest;" parent="-1NXa6blrXkoFp0iWsaB-4" vertex="1">
          <mxGeometry y="26" width="167" height="8" as="geometry" />
        </mxCell>
        <mxCell id="-1NXa6blrXkoFp0iWsaB-7" value="CharLiteral" style="swimlane;fontStyle=1;align=center;verticalAlign=top;childLayout=stackLayout;horizontal=1;startSize=26;horizontalStack=0;resizeParent=1;resizeParentMax=0;resizeLast=0;collapsible=1;marginBottom=0;" parent="1" vertex="1">
          <mxGeometry x="-220" y="170" width="167" height="60" as="geometry" />
        </mxCell>
        <mxCell id="-1NXa6blrXkoFp0iWsaB-8" value="+ value: char" style="text;strokeColor=none;fillColor=none;align=left;verticalAlign=top;spacingLeft=4;spacingRight=4;overflow=hidden;rotatable=0;points=[[0,0.5],[1,0.5]];portConstraint=eastwest;" parent="-1NXa6blrXkoFp0iWsaB-7" vertex="1">
          <mxGeometry y="26" width="167" height="26" as="geometry" />
        </mxCell>
        <mxCell id="-1NXa6blrXkoFp0iWsaB-9" value="" style="line;strokeWidth=1;fillColor=none;align=left;verticalAlign=middle;spacingTop=-1;spacingLeft=3;spacingRight=3;rotatable=0;labelPosition=right;points=[];portConstraint=eastwest;" parent="-1NXa6blrXkoFp0iWsaB-7" vertex="1">
          <mxGeometry y="52" width="167" height="8" as="geometry" />
        </mxCell>
        <mxCell id="-1NXa6blrXkoFp0iWsaB-10" value="" style="endArrow=block;dashed=1;endFill=0;endSize=12;html=1;entryX=0.5;entryY=1;entryDx=0;entryDy=0;exitX=0.5;exitY=0;exitDx=0;exitDy=0;" parent="1" source="-1NXa6blrXkoFp0iWsaB-1" target="reWRQmKxyJkvaZW5Zuav-19" edge="1">
          <mxGeometry width="160" relative="1" as="geometry">
            <mxPoint x="234" y="180" as="sourcePoint" />
            <mxPoint x="325" y="110" as="targetPoint" />
          </mxGeometry>
        </mxCell>
        <mxCell id="-1NXa6blrXkoFp0iWsaB-11" value="" style="endArrow=block;dashed=1;endFill=0;endSize=12;html=1;entryX=0.5;entryY=1;entryDx=0;entryDy=0;exitX=0.5;exitY=0;exitDx=0;exitDy=0;" parent="1" source="-1NXa6blrXkoFp0iWsaB-7" target="reWRQmKxyJkvaZW5Zuav-19" edge="1">
          <mxGeometry width="160" relative="1" as="geometry">
            <mxPoint x="54" y="180" as="sourcePoint" />
            <mxPoint x="325" y="110" as="targetPoint" />
          </mxGeometry>
        </mxCell>
        <mxCell id="-1NXa6blrXkoFp0iWsaB-12" value="" style="endArrow=block;dashed=1;endFill=0;endSize=12;html=1;entryX=0.5;entryY=1;entryDx=0;entryDy=0;exitX=0.5;exitY=0;exitDx=0;exitDy=0;" parent="1" source="-1NXa6blrXkoFp0iWsaB-4" target="reWRQmKxyJkvaZW5Zuav-19" edge="1">
          <mxGeometry width="160" relative="1" as="geometry">
            <mxPoint x="-126" y="180" as="sourcePoint" />
            <mxPoint x="325" y="110" as="targetPoint" />
          </mxGeometry>
        </mxCell>
        <mxCell id="-1NXa6blrXkoFp0iWsaB-13" value="ComparationExpression" style="swimlane;fontStyle=1;align=center;verticalAlign=top;childLayout=stackLayout;horizontal=1;startSize=26;horizontalStack=0;resizeParent=1;resizeParentMax=0;resizeLast=0;collapsible=1;marginBottom=0;" parent="1" vertex="1">
          <mxGeometry x="1033" y="170" width="167" height="60" as="geometry" />
        </mxCell>
        <mxCell id="-1NXa6blrXkoFp0iWsaB-14" value="+ operator: String" style="text;strokeColor=none;fillColor=none;align=left;verticalAlign=top;spacingLeft=4;spacingRight=4;overflow=hidden;rotatable=0;points=[[0,0.5],[1,0.5]];portConstraint=eastwest;" parent="-1NXa6blrXkoFp0iWsaB-13" vertex="1">
          <mxGeometry y="26" width="167" height="26" as="geometry" />
        </mxCell>
        <mxCell id="-1NXa6blrXkoFp0iWsaB-15" value="" style="line;strokeWidth=1;fillColor=none;align=left;verticalAlign=middle;spacingTop=-1;spacingLeft=3;spacingRight=3;rotatable=0;labelPosition=right;points=[];portConstraint=eastwest;" parent="-1NXa6blrXkoFp0iWsaB-13" vertex="1">
          <mxGeometry y="52" width="167" height="8" as="geometry" />
        </mxCell>
        <mxCell id="-1NXa6blrXkoFp0iWsaB-16" value="" style="endArrow=block;dashed=1;endFill=0;endSize=12;html=1;entryX=0.5;entryY=1;entryDx=0;entryDy=0;exitX=0.5;exitY=0;exitDx=0;exitDy=0;" parent="1" source="-1NXa6blrXkoFp0iWsaB-13" target="reWRQmKxyJkvaZW5Zuav-19" edge="1">
          <mxGeometry width="160" relative="1" as="geometry">
            <mxPoint x="591" y="180" as="sourcePoint" />
            <mxPoint x="325" y="110" as="targetPoint" />
          </mxGeometry>
        </mxCell>
        <mxCell id="-1NXa6blrXkoFp0iWsaB-17" value="LogicalExpression" style="swimlane;fontStyle=1;align=center;verticalAlign=top;childLayout=stackLayout;horizontal=1;startSize=26;horizontalStack=0;resizeParent=1;resizeParentMax=0;resizeLast=0;collapsible=1;marginBottom=0;" parent="1" vertex="1">
          <mxGeometry x="1213" y="170" width="167" height="60" as="geometry" />
        </mxCell>
        <mxCell id="-1NXa6blrXkoFp0iWsaB-18" value="+ operator: String" style="text;strokeColor=none;fillColor=none;align=left;verticalAlign=top;spacingLeft=4;spacingRight=4;overflow=hidden;rotatable=0;points=[[0,0.5],[1,0.5]];portConstraint=eastwest;" parent="-1NXa6blrXkoFp0iWsaB-17" vertex="1">
          <mxGeometry y="26" width="167" height="26" as="geometry" />
        </mxCell>
        <mxCell id="-1NXa6blrXkoFp0iWsaB-19" value="" style="line;strokeWidth=1;fillColor=none;align=left;verticalAlign=middle;spacingTop=-1;spacingLeft=3;spacingRight=3;rotatable=0;labelPosition=right;points=[];portConstraint=eastwest;" parent="-1NXa6blrXkoFp0iWsaB-17" vertex="1">
          <mxGeometry y="52" width="167" height="8" as="geometry" />
        </mxCell>
        <mxCell id="-1NXa6blrXkoFp0iWsaB-21" value="Negation" style="swimlane;fontStyle=1;align=center;verticalAlign=top;childLayout=stackLayout;horizontal=1;startSize=26;horizontalStack=0;resizeParent=1;resizeParentMax=0;resizeLast=0;collapsible=1;marginBottom=0;" parent="1" vertex="1">
          <mxGeometry x="-760" y="170" width="167" height="34" as="geometry" />
        </mxCell>
        <mxCell id="-1NXa6blrXkoFp0iWsaB-22" value="" style="line;strokeWidth=1;fillColor=none;align=left;verticalAlign=middle;spacingTop=-1;spacingLeft=3;spacingRight=3;rotatable=0;labelPosition=right;points=[];portConstraint=eastwest;" parent="-1NXa6blrXkoFp0iWsaB-21" vertex="1">
          <mxGeometry y="26" width="167" height="8" as="geometry" />
        </mxCell>
        <mxCell id="-1NXa6blrXkoFp0iWsaB-24" value="" style="endArrow=open;html=1;endSize=12;startArrow=diamondThin;startSize=14;startFill=0;edgeStyle=orthogonalEdgeStyle;align=left;verticalAlign=bottom;exitX=0.5;exitY=1;exitDx=0;exitDy=0;entryX=0;entryY=0.25;entryDx=0;entryDy=0;" parent="1" source="-1NXa6blrXkoFp0iWsaB-4" target="reWRQmKxyJkvaZW5Zuav-19" edge="1">
          <mxGeometry x="0.8709" y="-10" relative="1" as="geometry">
            <mxPoint x="-486" y="214" as="sourcePoint" />
            <mxPoint x="230" y="90" as="targetPoint" />
            <mxPoint as="offset" />
            <Array as="points">
              <mxPoint x="-317" y="310" />
              <mxPoint x="-1210" y="310" />
              <mxPoint x="-1210" y="70" />
            </Array>
          </mxGeometry>
        </mxCell>
        <mxCell id="-1NXa6blrXkoFp0iWsaB-25" value="*" style="edgeLabel;html=1;align=center;verticalAlign=middle;resizable=0;points=[];" parent="-1NXa6blrXkoFp0iWsaB-24" vertex="1" connectable="0">
          <mxGeometry x="0.8995" y="1" relative="1" as="geometry">
            <mxPoint x="90" y="1" as="offset" />
          </mxGeometry>
        </mxCell>
        <mxCell id="-1NXa6blrXkoFp0iWsaB-26" value="" style="endArrow=open;html=1;endSize=12;startArrow=diamondThin;startSize=14;startFill=0;edgeStyle=orthogonalEdgeStyle;align=left;verticalAlign=bottom;exitX=0.5;exitY=1;exitDx=0;exitDy=0;entryX=1;entryY=0.5;entryDx=0;entryDy=0;" parent="1" source="-1NXa6blrXkoFp0iWsaB-13" target="reWRQmKxyJkvaZW5Zuav-19" edge="1">
          <mxGeometry x="0.875" y="10" relative="1" as="geometry">
            <mxPoint x="591" y="240" as="sourcePoint" />
            <mxPoint x="420" y="90" as="targetPoint" />
            <mxPoint as="offset" />
            <Array as="points">
              <mxPoint x="1117" y="270" />
              <mxPoint x="1450" y="270" />
              <mxPoint x="1450" y="80" />
            </Array>
          </mxGeometry>
        </mxCell>
        <mxCell id="-1NXa6blrXkoFp0iWsaB-29" value="" style="endArrow=open;html=1;endSize=12;startArrow=diamondThin;startSize=14;startFill=0;edgeStyle=orthogonalEdgeStyle;align=left;verticalAlign=bottom;exitX=0.5;exitY=1;exitDx=0;exitDy=0;entryX=1;entryY=0.5;entryDx=0;entryDy=0;" parent="1" source="-1NXa6blrXkoFp0iWsaB-17" target="reWRQmKxyJkvaZW5Zuav-19" edge="1">
          <mxGeometry x="0.875" y="10" relative="1" as="geometry">
            <mxPoint x="591" y="240" as="sourcePoint" />
            <mxPoint x="420" y="90" as="targetPoint" />
            <mxPoint as="offset" />
            <Array as="points">
              <mxPoint x="1297" y="270" />
              <mxPoint x="1450" y="270" />
              <mxPoint x="1450" y="80" />
            </Array>
          </mxGeometry>
        </mxCell>
        <mxCell id="-1NXa6blrXkoFp0iWsaB-30" value="" style="endArrow=block;dashed=1;endFill=0;endSize=12;html=1;entryX=0.5;entryY=1;entryDx=0;entryDy=0;exitX=0.5;exitY=0;exitDx=0;exitDy=0;" parent="1" source="-1NXa6blrXkoFp0iWsaB-17" target="reWRQmKxyJkvaZW5Zuav-19" edge="1">
          <mxGeometry width="160" relative="1" as="geometry">
            <mxPoint x="763" y="180" as="sourcePoint" />
            <mxPoint x="325" y="110" as="targetPoint" />
          </mxGeometry>
        </mxCell>
        <mxCell id="-1NXa6blrXkoFp0iWsaB-33" value="" style="endArrow=open;html=1;endSize=12;startArrow=diamondThin;startSize=14;startFill=0;edgeStyle=orthogonalEdgeStyle;align=left;verticalAlign=bottom;exitX=0.5;exitY=1;exitDx=0;exitDy=0;entryX=0;entryY=0.75;entryDx=0;entryDy=0;" parent="1" source="-1NXa6blrXkoFp0iWsaB-21" target="reWRQmKxyJkvaZW5Zuav-19" edge="1">
          <mxGeometry x="0.8709" y="-10" relative="1" as="geometry">
            <mxPoint x="-306" y="240" as="sourcePoint" />
            <mxPoint x="230" y="80" as="targetPoint" />
            <mxPoint as="offset" />
            <Array as="points">
              <mxPoint x="-677" y="300" />
              <mxPoint x="-1200" y="300" />
              <mxPoint x="-1200" y="90" />
            </Array>
          </mxGeometry>
        </mxCell>
        <mxCell id="-1NXa6blrXkoFp0iWsaB-35" value="" style="endArrow=block;dashed=1;endFill=0;endSize=12;html=1;entryX=0.5;entryY=1;entryDx=0;entryDy=0;exitX=0.5;exitY=0;exitDx=0;exitDy=0;" parent="1" source="-1NXa6blrXkoFp0iWsaB-21" target="reWRQmKxyJkvaZW5Zuav-19" edge="1">
          <mxGeometry width="160" relative="1" as="geometry">
            <mxPoint x="-487" y="180" as="sourcePoint" />
            <mxPoint x="325" y="110" as="targetPoint" />
          </mxGeometry>
        </mxCell>
        <mxCell id="-1NXa6blrXkoFp0iWsaB-36" value="Cast" style="swimlane;fontStyle=1;align=center;verticalAlign=top;childLayout=stackLayout;horizontal=1;startSize=26;horizontalStack=0;resizeParent=1;resizeParentMax=0;resizeLast=0;collapsible=1;marginBottom=0;" parent="1" vertex="1">
          <mxGeometry x="-940" y="170" width="167" height="34" as="geometry" />
        </mxCell>
        <mxCell id="-1NXa6blrXkoFp0iWsaB-37" value="" style="line;strokeWidth=1;fillColor=none;align=left;verticalAlign=middle;spacingTop=-1;spacingLeft=3;spacingRight=3;rotatable=0;labelPosition=right;points=[];portConstraint=eastwest;" parent="-1NXa6blrXkoFp0iWsaB-36" vertex="1">
          <mxGeometry y="26" width="167" height="8" as="geometry" />
        </mxCell>
        <mxCell id="-1NXa6blrXkoFp0iWsaB-38" value="" style="endArrow=block;dashed=1;endFill=0;endSize=12;html=1;entryX=0.5;entryY=1;entryDx=0;entryDy=0;exitX=0.5;exitY=0;exitDx=0;exitDy=0;" parent="1" source="-1NXa6blrXkoFp0iWsaB-36" target="reWRQmKxyJkvaZW5Zuav-19" edge="1">
          <mxGeometry width="160" relative="1" as="geometry">
            <mxPoint x="-667" y="180" as="sourcePoint" />
            <mxPoint x="325" y="110" as="targetPoint" />
          </mxGeometry>
        </mxCell>
        <mxCell id="-1NXa6blrXkoFp0iWsaB-39" value="" style="endArrow=open;html=1;endSize=12;startArrow=diamondThin;startSize=14;startFill=0;edgeStyle=orthogonalEdgeStyle;align=left;verticalAlign=bottom;exitX=0.5;exitY=1;exitDx=0;exitDy=0;entryX=0;entryY=0.75;entryDx=0;entryDy=0;" parent="1" source="-1NXa6blrXkoFp0iWsaB-36" target="reWRQmKxyJkvaZW5Zuav-19" edge="1">
          <mxGeometry x="0.8709" y="-10" relative="1" as="geometry">
            <mxPoint x="-666" y="214" as="sourcePoint" />
            <mxPoint x="230" y="100" as="targetPoint" />
            <mxPoint as="offset" />
            <Array as="points">
              <mxPoint x="-857" y="300" />
              <mxPoint x="-1200" y="300" />
              <mxPoint x="-1200" y="90" />
            </Array>
          </mxGeometry>
        </mxCell>
        <mxCell id="tR2Q2163pN9dM4ZVq8OJ-2" value="FieldAccess" style="swimlane;fontStyle=1;align=center;verticalAlign=top;childLayout=stackLayout;horizontal=1;startSize=26;horizontalStack=0;resizeParent=1;resizeParentMax=0;resizeLast=0;collapsible=1;marginBottom=0;" parent="1" vertex="1">
          <mxGeometry x="497" y="170" width="167" height="60" as="geometry" />
        </mxCell>
        <mxCell id="YeqxWMtWmUDFQ8BwOmE7-13" value="+ property: String" style="text;strokeColor=none;fillColor=none;align=left;verticalAlign=top;spacingLeft=4;spacingRight=4;overflow=hidden;rotatable=0;points=[[0,0.5],[1,0.5]];portConstraint=eastwest;" parent="tR2Q2163pN9dM4ZVq8OJ-2" vertex="1">
          <mxGeometry y="26" width="167" height="26" as="geometry" />
        </mxCell>
        <mxCell id="tR2Q2163pN9dM4ZVq8OJ-3" value="" style="line;strokeWidth=1;fillColor=none;align=left;verticalAlign=middle;spacingTop=-1;spacingLeft=3;spacingRight=3;rotatable=0;labelPosition=right;points=[];portConstraint=eastwest;" parent="tR2Q2163pN9dM4ZVq8OJ-2" vertex="1">
          <mxGeometry y="52" width="167" height="8" as="geometry" />
        </mxCell>
        <mxCell id="tR2Q2163pN9dM4ZVq8OJ-6" value="&lt;p style=&quot;margin:0px;margin-top:4px;text-align:center;&quot;&gt;&lt;i&gt;&amp;lt;&amp;lt;Interface&amp;gt;&amp;gt;&lt;/i&gt;&lt;br&gt;&lt;b&gt;Type&lt;/b&gt;&lt;/p&gt;&lt;hr size=&quot;1&quot; style=&quot;border-style:solid;&quot;&gt;&lt;p style=&quot;margin:0px;margin-left:4px;&quot;&gt;&lt;br&gt;&lt;/p&gt;" style="verticalAlign=top;align=left;overflow=fill;html=1;whiteSpace=wrap;" parent="1" vertex="1">
          <mxGeometry x="-1190" y="167" width="190" height="40" as="geometry" />
        </mxCell>
        <mxCell id="tR2Q2163pN9dM4ZVq8OJ-7" value="" style="endArrow=open;endFill=1;endSize=12;html=1;exitX=0;exitY=0.5;exitDx=0;exitDy=0;" parent="1" source="-1NXa6blrXkoFp0iWsaB-36" edge="1">
          <mxGeometry width="160" relative="1" as="geometry">
            <mxPoint x="-970" y="186.76" as="sourcePoint" />
            <mxPoint x="-1000" y="186.7600000000001" as="targetPoint" />
            <Array as="points">
              <mxPoint x="-1000" y="186.7600000000001" />
            </Array>
          </mxGeometry>
        </mxCell>
        <mxCell id="tR2Q2163pN9dM4ZVq8OJ-8" value="1" style="edgeLabel;html=1;align=center;verticalAlign=middle;resizable=0;points=[];fontSize=12;" parent="tR2Q2163pN9dM4ZVq8OJ-7" connectable="0" vertex="1">
          <mxGeometry x="0.4161" y="-2" relative="1" as="geometry">
            <mxPoint y="2" as="offset" />
          </mxGeometry>
        </mxCell>
        <mxCell id="tR2Q2163pN9dM4ZVq8OJ-9" value="Indexing" style="swimlane;fontStyle=1;align=center;verticalAlign=top;childLayout=stackLayout;horizontal=1;startSize=26;horizontalStack=0;resizeParent=1;resizeParentMax=0;resizeLast=0;collapsible=1;marginBottom=0;" parent="1" vertex="1">
          <mxGeometry x="677" y="170" width="167" height="34" as="geometry" />
        </mxCell>
        <mxCell id="tR2Q2163pN9dM4ZVq8OJ-10" value="" style="line;strokeWidth=1;fillColor=none;align=left;verticalAlign=middle;spacingTop=-1;spacingLeft=3;spacingRight=3;rotatable=0;labelPosition=right;points=[];portConstraint=eastwest;" parent="tR2Q2163pN9dM4ZVq8OJ-9" vertex="1">
          <mxGeometry y="26" width="167" height="8" as="geometry" />
        </mxCell>
        <mxCell id="tR2Q2163pN9dM4ZVq8OJ-13" value="" style="endArrow=block;dashed=1;endFill=0;endSize=12;html=1;entryX=0.5;entryY=1;entryDx=0;entryDy=0;exitX=0.5;exitY=0;exitDx=0;exitDy=0;" parent="1" source="tR2Q2163pN9dM4ZVq8OJ-9" target="reWRQmKxyJkvaZW5Zuav-19" edge="1">
          <mxGeometry width="160" relative="1" as="geometry">
            <mxPoint x="944" y="180" as="sourcePoint" />
            <mxPoint x="325" y="110" as="targetPoint" />
          </mxGeometry>
        </mxCell>
        <mxCell id="tR2Q2163pN9dM4ZVq8OJ-14" value="" style="endArrow=block;dashed=1;endFill=0;endSize=12;html=1;entryX=0.5;entryY=1;entryDx=0;entryDy=0;exitX=0.5;exitY=0;exitDx=0;exitDy=0;" parent="1" source="tR2Q2163pN9dM4ZVq8OJ-2" target="reWRQmKxyJkvaZW5Zuav-19" edge="1">
          <mxGeometry width="160" relative="1" as="geometry">
            <mxPoint x="1304" y="180" as="sourcePoint" />
            <mxPoint x="325" y="110" as="targetPoint" />
          </mxGeometry>
        </mxCell>
        <mxCell id="YeqxWMtWmUDFQ8BwOmE7-1" value="Good" style="text;html=1;align=center;verticalAlign=middle;resizable=0;points=[];autosize=1;strokeColor=none;fillColor=none;" parent="1" vertex="1">
          <mxGeometry x="860" y="228" width="50" height="30" as="geometry" />
        </mxCell>
        <mxCell id="YeqxWMtWmUDFQ8BwOmE7-2" value="Good" style="text;html=1;align=center;verticalAlign=middle;resizable=0;points=[];autosize=1;strokeColor=none;fillColor=none;" parent="1" vertex="1">
          <mxGeometry x="1033" y="228" width="50" height="30" as="geometry" />
        </mxCell>
        <mxCell id="YeqxWMtWmUDFQ8BwOmE7-3" value="Good" style="text;html=1;align=center;verticalAlign=middle;resizable=0;points=[];autosize=1;strokeColor=none;fillColor=none;" parent="1" vertex="1">
          <mxGeometry x="1213" y="228" width="50" height="30" as="geometry" />
        </mxCell>
        <mxCell id="YeqxWMtWmUDFQ8BwOmE7-5" value="Good" style="text;html=1;align=center;verticalAlign=middle;resizable=0;points=[];autosize=1;strokeColor=none;fillColor=none;" parent="1" vertex="1">
          <mxGeometry x="-220" y="228" width="50" height="30" as="geometry" />
        </mxCell>
        <mxCell id="YeqxWMtWmUDFQ8BwOmE7-6" value="Good" style="text;html=1;align=center;verticalAlign=middle;resizable=0;points=[];autosize=1;strokeColor=none;fillColor=none;" parent="1" vertex="1">
          <mxGeometry x="-40" y="228" width="50" height="30" as="geometry" />
        </mxCell>
        <mxCell id="YeqxWMtWmUDFQ8BwOmE7-7" value="Good" style="text;html=1;align=center;verticalAlign=middle;resizable=0;points=[];autosize=1;strokeColor=none;fillColor=none;" parent="1" vertex="1">
          <mxGeometry x="140" y="228" width="50" height="30" as="geometry" />
        </mxCell>
        <mxCell id="YeqxWMtWmUDFQ8BwOmE7-8" value="1" style="endArrow=open;html=1;endSize=12;startArrow=diamondThin;startSize=14;startFill=0;edgeStyle=orthogonalEdgeStyle;align=left;verticalAlign=bottom;exitX=0.75;exitY=1;exitDx=0;exitDy=0;entryX=0.5;entryY=1;entryDx=0;entryDy=0;" parent="1" source="-1NXa6blrXkoFp0iWsaB-4" target="reWRQmKxyJkvaZW5Zuav-5" edge="1">
          <mxGeometry x="0.9306" relative="1" as="geometry">
            <mxPoint x="50" y="460" as="sourcePoint" />
            <mxPoint x="210" y="460" as="targetPoint" />
            <mxPoint as="offset" />
            <Array as="points">
              <mxPoint x="-275" y="310" />
              <mxPoint x="404" y="310" />
            </Array>
          </mxGeometry>
        </mxCell>
        <mxCell id="YeqxWMtWmUDFQ8BwOmE7-9" value="fn" style="text;html=1;align=center;verticalAlign=middle;resizable=0;points=[];autosize=1;strokeColor=none;fillColor=none;" parent="1" vertex="1">
          <mxGeometry x="15" y="288" width="30" height="30" as="geometry" />
        </mxCell>
        <mxCell id="YeqxWMtWmUDFQ8BwOmE7-10" value="args" style="text;html=1;align=center;verticalAlign=middle;resizable=0;points=[];autosize=1;strokeColor=none;fillColor=none;" parent="1" vertex="1">
          <mxGeometry x="-400" y="288" width="50" height="30" as="geometry" />
        </mxCell>
        <mxCell id="YeqxWMtWmUDFQ8BwOmE7-11" value="Good" style="text;html=1;align=center;verticalAlign=middle;resizable=0;points=[];autosize=1;strokeColor=none;fillColor=none;" parent="1" vertex="1">
          <mxGeometry x="-370" y="204" width="50" height="30" as="geometry" />
        </mxCell>
        <mxCell id="YeqxWMtWmUDFQ8BwOmE7-12" value="1" style="endArrow=open;html=1;endSize=12;startArrow=diamondThin;startSize=14;startFill=0;edgeStyle=orthogonalEdgeStyle;align=left;verticalAlign=bottom;exitX=0.5;exitY=1;exitDx=0;exitDy=0;entryX=1;entryY=0.25;entryDx=0;entryDy=0;" parent="1" source="tR2Q2163pN9dM4ZVq8OJ-2" target="reWRQmKxyJkvaZW5Zuav-19" edge="1">
          <mxGeometry x="0.9714" relative="1" as="geometry">
            <mxPoint x="954" y="240" as="sourcePoint" />
            <mxPoint x="420" y="90" as="targetPoint" />
            <mxPoint as="offset" />
            <Array as="points">
              <mxPoint x="580" y="280" />
              <mxPoint x="1460" y="280" />
              <mxPoint x="1460" y="70" />
            </Array>
          </mxGeometry>
        </mxCell>
        <mxCell id="YeqxWMtWmUDFQ8BwOmE7-14" value="Good" style="text;html=1;align=center;verticalAlign=middle;resizable=0;points=[];autosize=1;strokeColor=none;fillColor=none;" parent="1" vertex="1">
          <mxGeometry x="497" y="228" width="50" height="30" as="geometry" />
        </mxCell>
        <mxCell id="YeqxWMtWmUDFQ8BwOmE7-17" value="expr" style="text;html=1;align=center;verticalAlign=middle;resizable=0;points=[];autosize=1;strokeColor=none;fillColor=none;" parent="1" vertex="1">
          <mxGeometry x="655" y="258" width="50" height="30" as="geometry" />
        </mxCell>
        <mxCell id="YeqxWMtWmUDFQ8BwOmE7-18" value="op1, op2" style="text;html=1;align=center;verticalAlign=middle;resizable=0;points=[];autosize=1;strokeColor=none;fillColor=none;" parent="1" vertex="1">
          <mxGeometry x="1320" y="248" width="70" height="30" as="geometry" />
        </mxCell>
        <mxCell id="YeqxWMtWmUDFQ8BwOmE7-19" value="type" style="text;html=1;align=center;verticalAlign=middle;resizable=0;points=[];autosize=1;strokeColor=none;fillColor=none;" parent="1" vertex="1">
          <mxGeometry x="-990" y="158" width="50" height="30" as="geometry" />
        </mxCell>
        <mxCell id="YeqxWMtWmUDFQ8BwOmE7-20" value="Good" style="text;html=1;align=center;verticalAlign=middle;resizable=0;points=[];autosize=1;strokeColor=none;fillColor=none;" parent="1" vertex="1">
          <mxGeometry x="-940" y="200" width="50" height="30" as="geometry" />
        </mxCell>
        <mxCell id="YeqxWMtWmUDFQ8BwOmE7-21" value="expr" style="text;html=1;align=center;verticalAlign=middle;resizable=0;points=[];autosize=1;strokeColor=none;fillColor=none;" parent="1" vertex="1">
          <mxGeometry x="-985" y="278" width="50" height="30" as="geometry" />
        </mxCell>
        <mxCell id="YeqxWMtWmUDFQ8BwOmE7-24" value="Good" style="text;html=1;align=center;verticalAlign=middle;resizable=0;points=[];autosize=1;strokeColor=none;fillColor=none;" parent="1" vertex="1">
          <mxGeometry x="-760" y="200" width="50" height="30" as="geometry" />
        </mxCell>
        <mxCell id="YeqxWMtWmUDFQ8BwOmE7-25" value="Good" style="text;html=1;align=center;verticalAlign=middle;resizable=0;points=[];autosize=1;strokeColor=none;fillColor=none;" parent="1" vertex="1">
          <mxGeometry x="-580" y="200" width="50" height="30" as="geometry" />
        </mxCell>
        <mxCell id="YeqxWMtWmUDFQ8BwOmE7-26" value="Good" style="text;html=1;align=center;verticalAlign=middle;resizable=0;points=[];autosize=1;strokeColor=none;fillColor=none;" parent="1" vertex="1">
          <mxGeometry x="320" y="228" width="50" height="30" as="geometry" />
        </mxCell>
        <mxCell id="YeqxWMtWmUDFQ8BwOmE7-27" value="" style="endArrow=open;html=1;endSize=12;startArrow=diamondThin;startSize=14;startFill=0;edgeStyle=orthogonalEdgeStyle;align=left;verticalAlign=bottom;exitX=0.5;exitY=1;exitDx=0;exitDy=0;entryX=1;entryY=0.5;entryDx=0;entryDy=0;" parent="1" source="tR2Q2163pN9dM4ZVq8OJ-9" target="reWRQmKxyJkvaZW5Zuav-19" edge="1">
          <mxGeometry x="0.9714" relative="1" as="geometry">
            <mxPoint x="591" y="240" as="sourcePoint" />
            <mxPoint x="420" y="80" as="targetPoint" />
            <mxPoint as="offset" />
            <Array as="points">
              <mxPoint x="761" y="240" />
              <mxPoint x="761" y="270" />
              <mxPoint x="1450" y="270" />
              <mxPoint x="1450" y="80" />
            </Array>
          </mxGeometry>
        </mxCell>
        <mxCell id="YeqxWMtWmUDFQ8BwOmE7-29" value="Good" style="text;html=1;align=center;verticalAlign=middle;resizable=0;points=[];autosize=1;strokeColor=none;fillColor=none;" parent="1" vertex="1">
          <mxGeometry x="677" y="200" width="50" height="30" as="geometry" />
        </mxCell>
        <mxCell id="YeqxWMtWmUDFQ8BwOmE7-35" value="" style="endArrow=block;endSize=16;endFill=0;html=1;exitX=0.5;exitY=0;exitDx=0;exitDy=0;entryX=0.5;entryY=1;entryDx=0;entryDy=0;" parent="1" source="reWRQmKxyJkvaZW5Zuav-19" target="reWRQmKxyJkvaZW5Zuav-40" edge="1">
          <mxGeometry width="160" relative="1" as="geometry">
            <mxPoint x="230" y="-30" as="sourcePoint" />
            <mxPoint x="270" y="10" as="targetPoint" />
          </mxGeometry>
        </mxCell>
        <mxCell id="8xyn-nE2qud7wVknJzES-1" value="element, index" style="text;html=1;align=center;verticalAlign=middle;resizable=0;points=[];autosize=1;strokeColor=none;fillColor=none;" vertex="1" parent="1">
          <mxGeometry x="760" y="248" width="100" height="30" as="geometry" />
        </mxCell>
      </root>
    </mxGraphModel>
  </diagram>
</mxfile>
